<svg xmlns="http://www.w3.org/2000/svg" width="512" height="512" viewBox="0 0 512 512" version="1.1"><path d="M 209.020 171.250 C 203.756 173.940, 201.190 177.206, 199.927 182.828 C 197.325 194.411, 206.648 208.901, 219.698 213.556 C 228.787 216.798, 238.661 213.773, 242.729 206.500 C 245.897 200.838, 245.669 197.433, 241.910 194.271 C 239.399 192.158, 238.902 191.092, 239.257 188.585 C 239.498 186.888, 240.001 184.807, 240.374 183.960 C 241.455 181.508, 232.603 173.369, 226.283 171.005 C 219.325 168.401, 214.460 168.471, 209.020 171.250 M 308 267.722 C 301.721 270.081, 297.026 277.285, 297.066 284.500 C 297.153 300.361, 313.929 314.756, 329.094 311.983 C 334.574 310.981, 338.023 308.317, 340.750 302.980 C 343.529 297.540, 343.599 292.675, 340.995 285.717 C 338.631 279.397, 330.492 270.545, 328.040 271.626 C 327.193 271.999, 325.112 272.502, 323.415 272.743 C 320.908 273.098, 319.842 272.601, 317.729 270.090 C 315.177 267.057, 311.895 266.258, 308 267.722 M 268 403.059 C 268 403.641, 267.438 403.794, 266.750 403.399 C 266.063 403.003, 265.853 403.067, 266.284 403.540 C 266.715 404.014, 261.990 409.598, 255.784 415.950 L 244.501 427.500 257.250 415.015 C 264.263 408.148, 270 402.411, 270 402.265 C 270 402.119, 269.550 402, 269 402 C 268.450 402, 268 402.477, 268 403.059" stroke="none" fill="#e89fa9" fill-rule="evenodd"/><path d="M 400.500 44.956 C 395.873 45.961, 385 49.924, 385 50.605 C 385 51.090, 390.016 61.249, 390.551 61.848 C 390.722 62.039, 393.417 61.239, 396.540 60.071 C 412.571 54.073, 429.807 57.847, 441.980 70.020 C 454.153 82.193, 457.927 99.429, 451.929 115.460 C 450.761 118.583, 449.961 121.278, 450.152 121.449 C 451.464 122.621, 461.297 127.037, 461.699 126.634 C 461.975 126.359, 463.318 123.066, 464.685 119.317 C 471.924 99.461, 466.740 76.225, 451.688 61.061 C 440.734 50.025, 429.429 45.043, 414 44.451 C 408.775 44.250, 402.700 44.477, 400.500 44.956 M 321 256.500 C 318.571 258.975, 316.809 261, 317.084 261 C 317.359 261, 319.571 258.975, 322 256.500 C 324.429 254.025, 326.191 252, 325.916 252 C 325.641 252, 323.429 254.025, 321 256.500 M 45.939 401.250 C 39.624 438.114, 72.840 471.892, 109.761 466.152 C 113.942 465.502, 117.536 464.797, 117.747 464.586 C 117.958 464.375, 116.772 461.511, 115.112 458.222 L 112.093 452.241 107.296 453.148 C 101.097 454.320, 90.755 452.751, 83.481 449.534 C 75.849 446.159, 66.661 437.170, 62.998 429.497 C 59.384 421.923, 57.606 411.293, 58.852 404.704 L 59.759 399.907 53.908 396.954 C 50.690 395.329, 47.860 394, 47.619 394 C 47.378 394, 46.622 397.262, 45.939 401.250" stroke="none" fill="#e2796e" fill-rule="evenodd"/><path d="M 376.500 15.657 C 371.199 17.107, 364.939 20.397, 365.365 21.510 C 365.889 22.874, 376.079 37, 376.540 37 C 376.702 37, 379.009 36.042, 381.667 34.871 C 388.044 32.063, 399.528 29, 403.682 29 C 405.889 29, 407 28.522, 407 27.573 C 407 25.689, 400.669 20.535, 395.194 17.961 C 390.844 15.916, 380.303 14.617, 376.500 15.657 M 483 108.318 C 483 112.472, 479.937 123.956, 477.129 130.333 C 475.958 132.991, 475 135.298, 475 135.460 C 475 135.921, 489.126 146.111, 490.490 146.635 C 491.214 146.912, 492.660 144.946, 494.045 141.801 C 497.245 134.537, 497.305 123.430, 494.178 116.969 C 491.428 111.286, 486.307 105, 484.427 105 C 483.478 105, 483 106.111, 483 108.318 M 16.830 377.227 C 16.234 388.733, 18.989 396.655, 25.951 403.453 L 30 407.406 30.058 403.453 C 30.089 401.279, 30.941 396.350, 31.951 392.500 C 32.961 388.650, 33.722 385.470, 33.643 385.434 C 33.565 385.397, 29.788 382.800, 25.250 379.661 L 17 373.955 16.830 377.227 M 119 480.071 C 115.425 481.057, 110.721 481.894, 108.547 481.932 L 104.594 482 108.547 486.049 C 115.340 493.005, 123.278 495.769, 134.745 495.170 L 137.990 495 132.245 486.544 C 129.085 481.893, 126.275 478.131, 126 478.183 C 125.725 478.235, 122.575 479.085, 119 480.071" stroke="none" fill="#b0da87" fill-rule="evenodd"/><path d="M 408.768 57.725 C 410.565 57.947, 413.265 57.943, 414.768 57.715 C 416.271 57.486, 414.800 57.304, 411.500 57.310 C 408.200 57.315, 406.971 57.502, 408.768 57.725 M 439 67.313 C 439 67.485, 440.462 68.948, 442.250 70.563 L 445.500 73.500 442.563 70.250 C 439.825 67.221, 439 66.540, 439 67.313 M 400.693 74.681 C 397.819 75.873, 397.057 76.657, 397.583 77.880 C 397.967 78.771, 400.287 85.193, 402.740 92.150 L 407.200 104.800 419.850 109.260 C 426.807 111.713, 433.228 114.033, 434.119 114.416 C 436.575 115.474, 439 108.398, 439 100.176 C 439 88.932, 432.934 79.600, 422.565 74.890 C 417.435 72.560, 406.072 72.451, 400.693 74.681 M 454.310 100.500 C 454.315 103.800, 454.502 105.029, 454.725 103.232 C 454.947 101.435, 454.943 98.735, 454.715 97.232 C 454.486 95.729, 454.304 97.200, 454.310 100.500 M 416.316 165.500 C 416.460 166.932, 417.299 167.535, 419.271 167.622 C 421.680 167.728, 421.718 167.689, 419.574 167.311 C 418.226 167.074, 416.896 166.119, 416.619 165.190 C 416.255 163.970, 416.171 164.057, 416.316 165.500 M 401.286 169.500 C 401.294 172.250, 401.488 173.256, 401.718 171.736 C 401.947 170.216, 401.941 167.966, 401.704 166.736 C 401.467 165.506, 401.279 166.750, 401.286 169.500 M 401.272 180 C 401.272 182.475, 401.467 183.488, 401.706 182.250 C 401.944 181.012, 401.944 178.988, 401.706 177.750 C 401.467 176.512, 401.272 177.525, 401.272 180 M 254.946 190.750 L 251.500 194.500 255.250 191.054 C 257.313 189.158, 259 187.471, 259 187.304 C 259 186.540, 258.154 187.260, 254.946 190.750 M 74 411.233 C 74 425.308, 86.665 437.920, 100.857 437.978 C 105.576 437.997, 106.127 437.791, 105.481 436.250 C 105.078 435.288, 103.295 430.102, 101.518 424.727 C 99.741 419.352, 98.008 414.675, 97.667 414.333 C 97.325 413.992, 92.648 412.259, 87.273 410.482 C 81.898 408.705, 76.713 406.922, 75.750 406.519 C 74.208 405.873, 74 406.433, 74 411.233 M 58.232 410 C 58.232 411.925, 58.438 412.712, 58.689 411.750 C 58.941 410.788, 58.941 409.212, 58.689 408.250 C 58.438 407.288, 58.232 408.075, 58.232 410 M 161.750 423.737 C 164.637 423.939, 169.363 423.939, 172.250 423.737 C 175.137 423.535, 172.775 423.370, 167 423.370 C 161.225 423.370, 158.863 423.535, 161.750 423.737 M 100.250 453.689 C 101.213 453.941, 102.787 453.941, 103.750 453.689 C 104.713 453.438, 103.925 453.232, 102 453.232 C 100.075 453.232, 99.287 453.438, 100.250 453.689" stroke="none" fill="#d95749" fill-rule="evenodd"/><path d="M 367.876 2.255 C 364.233 3.527, 359.359 5.820, 357.046 7.351 C 352.888 10.103, 352.789 10.116, 348.242 8.567 C 341.610 6.307, 331.289 6.552, 324.288 9.135 C 318.988 11.091, 316.075 13.684, 289.747 39.885 C 263.972 65.536, 260.994 68.833, 260.997 71.711 C 261.001 75.960, 264.289 79, 268.881 79 C 272.131 79, 274.379 77.014, 299.942 51.566 C 315.099 36.477, 328.767 23.652, 330.315 23.066 C 334.191 21.599, 340.420 21.731, 344.327 23.363 C 354.341 27.548, 376.949 64.358, 387.401 93.500 C 396.848 119.840, 401.235 145.040, 401.328 173.500 C 401.393 193.652, 400.297 204.691, 396.463 222.500 C 377.568 310.256, 311.088 379.495, 224.643 401.451 C 205.989 406.189, 191.252 408.154, 169.982 408.741 C 146.945 409.376, 130.915 407.530, 110.251 401.865 C 79.174 393.344, 53.329 381.379, 30.500 364.945 C 21.254 358.288, 17.557 354.636, 16.064 350.685 C 14.707 347.093, 14.700 340.934, 16.050 337.315 C 16.643 335.724, 67.966 283.606, 134.050 217.486 C 258.663 92.804, 252.827 99.104, 249.829 92.523 C 248.555 89.727, 245.298 88.451, 241.750 89.358 C 240.512 89.674, 186.564 142.936, 121.865 207.717 C 9.220 320.503, 4.140 325.746, 2.115 331.288 C -0.856 339.418, -0.728 349.614, 2.442 357.324 C 4.705 362.827, 4.752 363.349, 3.296 366.824 C 0.890 372.565, 0.458 385.352, 2.413 392.975 C 5.469 404.889, 14.259 416.194, 24.858 421.844 C 30.646 424.928, 30.670 424.961, 33.367 433.147 C 40.360 454.372, 57.335 471.377, 78.815 478.675 C 87.066 481.478, 87.154 481.544, 90.190 487.223 C 95.820 497.753, 107.152 506.542, 119.025 509.587 C 126.645 511.541, 139.434 511.110, 145.171 508.707 C 148.650 507.249, 149.166 507.299, 155.062 509.681 C 163.302 513.009, 174.873 512.749, 182.500 509.063 C 188.313 506.254, 219.458 476.318, 221.506 471.570 C 223.356 467.283, 221.716 463.391, 217.469 461.990 C 214.948 461.158, 213.518 461.174, 211.799 462.056 C 210.535 462.704, 202.300 470.351, 193.500 479.048 C 184.700 487.745, 176.233 495.342, 174.685 495.931 C 170.814 497.401, 164.584 497.271, 160.673 495.637 C 151.401 491.763, 130.888 459.394, 119.505 430.675 C 116.927 424.171, 114.971 418.711, 115.159 418.543 C 115.346 418.374, 120.675 419.166, 127 420.302 C 136.833 422.067, 142.632 422.369, 167 422.385 C 193.556 422.401, 196.489 422.222, 210 419.753 C 230.448 416.018, 247.429 410.924, 267.500 402.505 C 270.883 401.086, 268.453 403.896, 251.750 420.720 C 229.967 442.662, 229.294 443.788, 234.557 449.467 C 236.676 451.754, 237.662 452.120, 240.307 451.601 C 242.882 451.096, 268.407 426.048, 372.136 322.237 C 495.490 198.787, 500.859 193.262, 502.886 187.712 C 505.437 180.729, 505.684 170.364, 503.456 163.824 L 501.911 159.292 505.386 153.396 C 510.585 144.572, 512.301 137.425, 511.826 126.571 C 511.476 118.558, 510.970 116.469, 507.728 109.643 C 503.407 100.544, 496.233 92.938, 487.817 88.531 C 482.717 85.861, 482.185 85.248, 481.014 80.676 C 479.230 73.716, 472.896 61.544, 467.527 54.758 C 459.382 44.464, 443.678 34.153, 431.324 30.986 C 426.752 29.815, 426.139 29.283, 423.469 24.183 C 419.056 15.756, 411.457 8.594, 402.322 4.253 C 395.160 0.850, 393.656 0.511, 384.500 0.239 C 376.119 -0.010, 373.428 0.316, 367.876 2.255 M 373.500 16.394 C 369.144 17.766, 365 20.087, 365 21.154 C 365 21.523, 367.543 25.406, 370.651 29.782 L 376.301 37.738 382.658 34.856 C 389.633 31.693, 399.676 29.038, 404.750 29.015 C 406.538 29.007, 408 28.588, 408 28.085 C 408 27.582, 405.929 25.347, 403.397 23.118 C 395.176 15.882, 383.477 13.251, 373.500 16.394 M 398 45.132 C 396.075 45.655, 392.162 47.007, 389.306 48.135 L 384.111 50.187 387.280 56.614 C 389.657 61.433, 390.831 62.873, 391.975 62.368 C 405.834 56.249, 421.994 56.624, 433 63.320 C 452.583 75.235, 459.299 98.131, 449.632 120.025 C 449.127 121.169, 450.567 122.343, 455.386 124.720 L 461.813 127.889 463.853 122.694 C 467.196 114.183, 467.989 109.965, 467.994 100.644 C 468.005 84.078, 463.068 72.058, 451.505 60.495 C 439.742 48.732, 427.835 43.927, 410.856 44.090 C 405.710 44.140, 399.925 44.609, 398 45.132 M 400.693 74.681 C 397.819 75.873, 397.057 76.657, 397.583 77.880 C 397.967 78.771, 400.287 85.193, 402.740 92.150 L 407.200 104.800 419.850 109.260 C 426.807 111.713, 433.228 114.033, 434.119 114.416 C 436.575 115.474, 439 108.398, 439 100.176 C 439 88.932, 432.934 79.600, 422.565 74.890 C 417.435 72.560, 406.072 72.451, 400.693 74.681 M 482.985 107.250 C 482.962 112.324, 480.307 122.367, 477.144 129.342 L 474.262 135.699 482.218 141.349 C 486.594 144.457, 490.545 147, 490.998 147 C 491.451 147, 492.874 144.863, 494.161 142.250 C 497.358 135.758, 497.447 123.628, 494.348 116.878 C 492.212 112.226, 485.528 104, 483.884 104 C 483.398 104, 482.993 105.463, 482.985 107.250 M 411.327 123.651 C 412.665 128.362, 415.133 146.563, 415.782 156.500 L 416.500 167.500 421.785 168.145 C 427.858 168.886, 432.629 171.785, 436.090 176.837 C 438.091 179.756, 438.500 181.583, 438.500 187.591 C 438.500 194.021, 438.166 195.301, 435.500 199.075 C 431.655 204.518, 426.140 207.387, 419.400 207.451 L 414.196 207.500 412.991 214.964 C 410.129 232.687, 402.728 257.770, 395.872 272.982 C 392.935 279.498, 392.948 279.486, 439.534 233 C 465.164 207.425, 487.004 184.830, 488.067 182.790 C 490.329 178.449, 490.561 172.279, 488.637 167.673 C 484.859 158.631, 452.160 137.656, 425.500 127.173 C 411.173 121.540, 410.694 121.421, 411.327 123.651 M 311.073 144.635 C 309.933 146.084, 309 148.048, 309 149 C 309 149.952, 309.933 151.916, 311.073 153.365 C 315.159 158.560, 324 155.360, 324 148.686 C 324 142.282, 315.114 139.498, 311.073 144.635 M 246.607 178.115 C 238.811 184.977, 237.253 190.963, 242.337 194.523 C 246.134 197.183, 248.837 196.297, 255.074 190.348 C 260.003 185.647, 261 184.132, 261 181.348 C 261 177.196, 258.017 174, 254.141 174 C 252.216 174, 249.754 175.344, 246.607 178.115 M 417.250 182.663 C 415.719 183.280, 415.556 191.608, 417.057 192.535 C 418.937 193.697, 423.064 192.002, 423.908 189.720 C 424.729 187.501, 423.398 183, 421.921 183 C 421.505 183, 420.564 182.811, 419.832 182.579 C 419.099 182.348, 417.938 182.385, 417.250 182.663 M 359.635 193.073 C 356.190 195.782, 356.114 200.205, 359.455 203.545 C 362.188 206.278, 363.733 206.534, 367.403 204.862 C 370.798 203.315, 372.129 199.213, 370.496 195.329 C 368.483 190.541, 364.030 189.615, 359.635 193.073 M 272.315 210.007 C 269.044 211.325, 267.723 214.667, 268.210 220.393 C 269.309 233.328, 278.949 242.804, 292.012 243.790 C 296.342 244.117, 297.995 243.808, 299.719 242.353 C 305.526 237.452, 302.408 230.521, 293.889 229.391 C 287.092 228.489, 283.511 224.908, 282.609 218.111 C 282.114 214.381, 281.278 212.578, 279.337 211.051 C 276.495 208.815, 275.603 208.682, 272.315 210.007 M 321.652 256.926 C 315.703 263.163, 314.817 265.866, 317.477 269.663 C 319.516 272.574, 323.410 273.357, 326.894 271.555 C 331.499 269.173, 338 261.157, 338 257.859 C 338 253.983, 334.804 251, 330.652 251 C 327.868 251, 326.353 251.997, 321.652 256.926 M 189.455 290.455 C 188.105 291.805, 187 294.075, 187 295.500 C 187 298.318, 191 303, 193.407 303 C 199.099 303, 202.703 297.576, 200.496 292.329 C 198.405 287.355, 193.403 286.506, 189.455 290.455 M 189.455 345.455 C 188.105 346.805, 187 349.075, 187 350.500 C 187 353.318, 191 358, 193.407 358 C 201.164 358, 204.270 347.267, 197.418 344.144 C 193.732 342.465, 192.190 342.719, 189.455 345.455 M 16.437 377.485 C 14.929 385.521, 18.987 396.977, 25.622 403.421 L 29.492 407.180 30.708 399.918 C 31.377 395.924, 32.391 391.317, 32.962 389.679 C 33.533 388.041, 34 386.385, 34 385.997 C 34 385.437, 25.079 379.028, 18.314 374.728 C 17.476 374.196, 16.893 375.052, 16.437 377.485 M 46.073 398.095 C 42.089 416.672, 48.087 436.828, 61.630 450.370 C 75.172 463.913, 95.328 469.911, 113.905 465.927 L 118.909 464.854 115.799 458.547 L 112.689 452.241 104.464 452.754 C 78.296 454.386, 57.614 433.704, 59.246 407.536 L 59.759 399.311 53.453 396.201 L 47.146 393.091 46.073 398.095 M 74 411.233 C 74 425.308, 86.665 437.920, 100.857 437.978 C 105.576 437.997, 106.127 437.791, 105.481 436.250 C 105.078 435.288, 103.295 430.102, 101.518 424.727 C 99.741 419.352, 98.008 414.675, 97.667 414.333 C 97.325 413.992, 92.648 412.259, 87.273 410.482 C 81.898 408.705, 76.713 406.922, 75.750 406.519 C 74.208 405.873, 74 406.433, 74 411.233 M 121.850 479.117 C 120.393 479.658, 115.965 480.642, 112.010 481.304 L 104.820 482.508 108.593 486.393 C 115.119 493.113, 129.293 497.788, 135.700 495.335 C 137.832 494.519, 137.732 494.249, 132.415 486.497 C 129.399 482.098, 126.384 478.418, 125.715 478.317 C 125.047 478.217, 123.308 478.577, 121.850 479.117" stroke="none" fill="#060605" fill-rule="evenodd"/><path d="M 331.500 23.207 C 328.158 24.094, 322.859 28.876, 299.293 52.268 C 269.196 82.144, 270.585 81.110, 263.987 78.554 C 262.998 78.171, 260.253 80.209, 256.057 84.442 C 250.025 90.529, 249.711 91.071, 250.820 93.505 C 251.469 94.929, 252 96.852, 252 97.779 C 252 98.705, 199.182 152.347, 134.626 216.982 C 22.621 329.125, 17.201 334.717, 16.112 339.250 C 14.508 345.927, 16.227 352.232, 20.926 356.909 C 25.536 361.497, 39.815 371.222, 51.971 378.054 C 76.319 391.737, 109.933 403.232, 137 407.130 C 141.675 407.804, 154.050 408.341, 164.500 408.326 C 251.761 408.192, 328.722 363.556, 371.286 288.393 C 399.028 239.405, 407.851 178.968, 395.414 123.131 C 388.089 90.243, 372.905 57.262, 353.406 31.886 C 347.237 23.858, 339.940 20.967, 331.500 23.207 M 412.303 125.139 C 413.408 129.678, 415.860 148.578, 416.533 157.750 L 417.212 167 420.356 167.022 C 427.838 167.074, 436.852 174.205, 438.940 181.723 C 440.578 187.623, 440.211 191.184, 437.377 196.871 C 433.900 203.848, 428.966 207.116, 420.716 207.905 C 415.019 208.450, 414.475 208.709, 414.204 211 C 412.561 224.891, 405.590 250.705, 399.393 265.842 C 397.444 270.604, 395.579 275.175, 395.249 276 C 394.223 278.563, 482.892 189.760, 486.033 185.079 C 489.887 179.335, 490.172 171.453, 486.732 165.770 C 483.291 160.086, 460.797 144.492, 443.224 135.607 C 437.832 132.882, 418.416 124.808, 414.114 123.503 C 411.984 122.856, 411.789 123.032, 412.303 125.139 M 311.455 143.455 C 306.884 148.025, 309.150 155.348, 315.516 156.575 C 322.901 157.998, 327.333 147.767, 321.365 143.073 C 317.870 140.323, 314.454 140.455, 311.455 143.455 M 209.020 171.250 C 203.756 173.940, 201.190 177.206, 199.927 182.828 C 196.661 197.365, 211.630 214.783, 227.538 214.956 C 236.392 215.052, 244.943 207.354, 244.984 199.250 C 244.998 196.402, 245.329 196, 247.660 196 C 251.356 196, 262 185.398, 262 181.716 C 262 177.781, 257.968 173.667, 254.112 173.667 C 251.642 173.667, 249.825 174.733, 246.189 178.314 L 241.471 182.961 236.601 178.002 C 228.282 169.530, 217.536 166.899, 209.020 171.250 M 417 185.918 C 417 187.523, 416.727 189.548, 416.393 190.418 C 415.925 191.637, 416.453 192, 418.693 192 C 421.977 192, 424 190.427, 424 187.871 C 424 185.570, 421.325 183, 418.929 183 C 417.464 183, 417 183.703, 417 185.918 M 359.337 192.477 C 356.428 194.514, 355.643 198.410, 357.442 201.887 C 359.946 206.729, 365.589 207.502, 369.545 203.545 C 372.545 200.546, 372.677 197.130, 369.927 193.635 C 367.542 190.602, 362.760 190.079, 359.337 192.477 M 270.025 210.975 C 267.203 213.797, 266.662 217.053, 267.968 223.345 C 269.299 229.758, 273.328 235.776, 279.077 239.941 C 283.476 243.127, 292.669 245.551, 296.607 244.562 C 302.478 243.089, 304.871 236.532, 301.195 231.992 C 299.968 230.477, 297.662 229.490, 293.996 228.910 C 286.927 227.793, 284.207 225.073, 283.090 218.004 C 282.121 211.877, 279.501 209, 274.889 209 C 273.300 209, 271.111 209.889, 270.025 210.975 M 321.840 255.840 C 317.798 259.882, 316 262.459, 316 264.210 C 316 266.459, 315.510 266.795, 311.591 267.237 C 300.412 268.497, 294.186 280.366, 298.444 292.302 C 303.103 305.364, 316.887 314.215, 329.094 311.983 C 334.574 310.981, 338.023 308.317, 340.750 302.980 C 345.101 294.464, 342.470 283.718, 333.998 275.399 L 329.039 270.529 333.686 265.811 C 339.350 260.061, 339.923 256.051, 335.611 252.342 C 331.202 248.549, 328.426 249.254, 321.840 255.840 M 190.229 288.669 C 189.530 288.951, 188.257 290.536, 187.400 292.193 C 183.323 300.077, 194.447 307.333, 199.927 300.365 C 201.067 298.916, 202 296.727, 202 295.500 C 202 291.741, 198.298 287.989, 194.677 288.079 C 192.930 288.122, 190.928 288.388, 190.229 288.669 M 190.229 343.669 C 189.530 343.951, 188.257 345.536, 187.400 347.193 C 183.323 355.077, 194.447 362.333, 199.927 355.365 C 201.067 353.916, 202 351.727, 202 350.500 C 202 346.741, 198.298 342.989, 194.677 343.079 C 192.930 343.122, 190.928 343.388, 190.229 343.669 M 264 404.613 C 256.344 407.971, 234.899 414.866, 224.500 417.313 C 192.578 424.826, 156.949 425.956, 125.409 420.456 C 120.633 419.623, 116.537 419.130, 116.307 419.360 C 115.580 420.087, 122.016 436.041, 128.104 448.603 C 133.838 460.434, 149.246 484.786, 154.449 490.241 C 160.181 496.249, 169.185 498.011, 176.077 494.473 C 177.959 493.507, 186.728 485.580, 195.563 476.858 C 209.012 463.580, 212.103 461.002, 214.563 461.015 C 216.178 461.024, 218.175 461.459, 219 461.984 C 220.150 462.714, 222.046 461.404, 227.124 456.370 C 233.617 449.934, 233.721 449.748, 232.362 447.023 C 231.529 445.353, 231.279 443.425, 231.737 442.195 C 232.563 439.978, 238.884 433.088, 256.915 414.750 C 263.270 408.288, 268.251 403.018, 267.984 403.039 C 267.718 403.061, 265.925 403.769, 264 404.613" stroke="none" fill="#f0d39b" fill-rule="evenodd"/></svg>